<svg width="298" height="23" viewBox="0 0 298 23" fill="none" xmlns="http://www.w3.org/2000/svg">
<path d="M15.7428 4.55331H4.55331V11.0442H15.7428C15.985 11.0442 16.2757 10.9958 16.4694 10.8989C16.7116 10.802 16.9054 10.6567 17.0991 10.4629C17.2929 10.2692 17.4382 10.0754 17.5351 9.83321C17.632 9.59102 17.6804 9.34882 17.6804 9.10662V6.49089C17.6804 6.24869 17.632 5.95806 17.5351 5.7643C17.4382 5.5221 17.2929 5.32835 17.0991 5.13459C16.9054 4.94083 16.7116 4.7955 16.4694 4.69862C16.2757 4.65018 16.0335 4.55331 15.7428 4.55331ZM41.1736 4.55331H29.9841V11.0442H41.1736C41.4158 11.0442 41.7064 10.9958 41.9002 10.8989C42.1424 10.802 42.3361 10.6567 42.5299 10.4629C42.7237 10.2692 42.869 10.0754 42.9658 9.83321C43.0627 9.59102 43.1112 9.34882 43.1112 9.10662V6.49089C43.1112 6.24869 43.0627 5.95806 42.9658 5.7643C42.869 5.5221 42.7237 5.32835 42.5299 5.13459C42.3361 4.94083 42.1424 4.7955 41.9002 4.69862C41.7064 4.65018 41.4642 4.55331 41.1736 4.55331ZM42.433 15.5006L46.0175 21.0712C46.2597 21.4587 46.1629 21.9915 45.7753 22.2337C45.63 22.3306 45.4363 22.379 45.2425 22.379L41.8517 22.3306C41.5611 22.3306 41.2705 22.1853 41.1251 21.9431L37.1047 15.646H30.0325V21.5556C30.0325 22.04 29.645 22.379 29.209 22.379H26.3027C25.8183 22.379 25.4792 21.9915 25.4792 21.5556V13.3693V2.32509C25.4792 1.69538 25.7214 1.11411 26.1573 0.726593L26.2058 0.67815C26.5933 0.290634 27.1746 0.0484425 27.7558 0.0484425H41.222C42.0939 0.0484425 42.9658 0.242201 43.6924 0.532838C44.5159 0.871914 45.1941 1.35631 45.8238 1.93758L45.8722 1.98602C46.4535 2.5673 46.9379 3.29388 47.2285 4.06892C47.5676 4.84395 47.7129 5.66742 47.7129 6.53933V9.15506C47.7129 10.027 47.5192 10.8989 47.2285 11.6255C46.8894 12.4005 46.4051 13.1271 45.8238 13.7568C45.2425 14.3381 44.5159 14.8225 43.6924 15.1616C43.2565 15.3069 42.869 15.4522 42.433 15.5006ZM56.5289 0.823463V21.5556C56.5289 22.04 56.1414 22.379 55.7054 22.379H52.7991C52.3147 22.379 51.9756 21.9915 51.9756 21.5556V0.823463C51.9756 0.339068 52.3631 0 52.7991 0H55.7054C56.1414 0 56.5289 0.387507 56.5289 0.823463ZM110.975 13.4662H97.9447V15.8397C97.9447 16.0819 97.9931 16.3725 98.09 16.5663C98.1869 16.8085 98.3322 17.0023 98.526 17.196C98.7197 17.3898 98.9135 17.5351 99.1557 17.632C99.3979 17.7289 99.6401 17.7773 99.8823 17.7773H113.348C113.833 17.7773 114.172 18.1648 114.172 18.6008V21.5071C114.172 21.9915 113.784 22.3306 113.348 22.3306H99.8823C99.0104 22.3306 98.1384 22.1369 97.4118 21.8462C96.5884 21.5071 95.9102 21.0227 95.2805 20.4415L95.2321 20.393C94.6508 19.8118 94.1664 19.0852 93.8758 18.3101C93.5367 17.5351 93.3914 16.7116 93.3914 15.8397V6.53933C93.3914 5.66742 93.5851 4.79551 93.8758 4.06892C94.2149 3.24544 94.6992 2.56729 95.2805 1.93758L95.329 1.88914C95.9102 1.30786 96.6368 0.823475 97.4118 0.532838C98.1869 0.193761 99.0104 0.0484425 99.8823 0.0484425H113.348C113.833 0.0484425 114.172 0.43595 114.172 0.871905V3.77828C114.172 4.26267 113.784 4.60175 113.348 4.60175H99.8823C99.6401 4.60175 99.3494 4.65019 99.1557 4.74707C98.9135 4.84395 98.7197 4.98926 98.526 5.18302C98.3322 5.37678 98.1869 5.57054 98.09 5.81274C97.9931 6.05494 97.9447 6.29714 97.9447 6.53933V8.91287H110.975C111.459 8.91287 111.798 9.30039 111.798 9.73634V12.6427C111.798 13.0787 111.411 13.4662 110.975 13.4662ZM60.9369 21.4587L60.8885 2.27665C60.8885 1.64693 61.1307 1.06567 61.5666 0.67815C62.0026 0.242195 62.5354 0 63.1651 0H67.6216C68.106 0 68.5419 0.145313 68.9294 0.38751C69.3169 0.629708 69.6076 1.01723 69.7529 1.45319L75.0328 18.2133H75.0812L80.3612 1.50163C80.3612 1.45319 80.3612 1.45318 80.4096 1.40474C80.5549 0.968787 80.8455 0.629708 81.2331 0.38751C81.6206 0.145313 82.0565 0 82.5409 0H86.9974C87.6271 0 88.2084 0.242195 88.5959 0.67815C89.0318 1.11411 89.274 1.64693 89.274 2.27665L89.3225 21.5071C89.3225 21.9915 88.9349 22.3306 88.499 22.3306H85.5926C85.1082 22.3306 84.7691 21.9431 84.7691 21.5071V21.4103L84.7207 4.55331H84.1394L78.8595 20.8774C78.8595 20.9259 78.8595 20.9259 78.8111 20.9743C78.6173 21.4103 78.3267 21.7493 77.9876 21.9915C77.6485 22.2337 77.261 22.3306 76.8735 22.379C76.8251 22.379 76.7766 22.379 76.7766 22.379H73.6281C73.5796 22.379 73.5312 22.379 73.5312 22.379C73.1437 22.379 72.7561 22.2337 72.4171 21.9915C72.078 21.7493 71.7389 21.4103 71.5936 20.9743C71.5936 20.9259 71.5452 20.9259 71.5452 20.8774L66.2168 4.60175H65.6355L65.684 21.5556C65.684 22.04 65.2965 22.379 64.8605 22.379H61.9541C61.4697 22.379 61.1307 21.9915 61.1307 21.5556L60.9369 21.4587ZM2.27666 0H15.7428C16.6148 0 17.4867 0.193758 18.2133 0.484395C19.0367 0.823472 19.7149 1.30786 20.3446 1.88914L20.393 1.93758C20.9743 2.51885 21.4587 3.24544 21.7493 4.02047C22.0884 4.79551 22.2337 5.61898 22.2337 6.49089V9.10662C22.2337 9.97853 22.04 10.8504 21.7493 11.577C21.4103 12.3521 20.9259 13.0787 20.3446 13.7084C19.7633 14.2896 19.0367 14.774 18.2133 15.1131C17.4382 15.4522 16.6148 15.5975 15.7428 15.5975H4.55331V21.5071C4.55331 21.9915 4.1658 22.3306 3.72984 22.3306H0.823474C0.339079 22.3306 0 21.9431 0 21.5071V13.3209V2.27665C0 1.64693 0.242198 1.06567 0.678154 0.67815C1.06567 0.242195 1.64695 0 2.27666 0Z" fill="white"/>
<path fill-rule="evenodd" clip-rule="evenodd" d="M120.227 16.615C118.629 16.615 117.369 17.9229 117.369 19.4729C117.369 21.0714 118.677 22.3309 120.227 22.3309C121.826 22.3309 123.085 21.023 123.085 19.4729C123.085 17.9229 121.777 16.615 120.227 16.615Z" fill="#FE0000"/>
<path d="M150.888 3.5365H139.311V9.3008H150.888C151.663 9.3008 152.341 9.01017 152.874 8.47733C153.358 7.99294 153.697 7.26634 153.697 6.49131V6.24911C153.697 5.47408 153.407 4.79593 152.874 4.26309C152.341 3.87557 151.663 3.5365 150.888 3.5365ZM137.857 0.630127H150.888C152.438 0.630127 153.891 1.25984 154.908 2.27707C155.925 3.2943 156.555 4.74749 156.555 6.29756V6.53975C156.555 8.08982 155.925 9.543 154.908 10.5602C153.891 11.5775 152.438 12.2072 150.888 12.2072H137.857C137.034 12.2072 136.404 11.5775 136.404 10.754V2.08331C136.404 1.30828 137.082 0.630127 137.857 0.630127Z" fill="white"/>
<path d="M139.506 13.37H136.6V21.5563H139.506V13.37Z" fill="white"/>
<path d="M151.372 18.7459H139.359V12.5457H151.372C152.147 12.5457 152.825 12.8363 153.358 13.3691C153.843 13.8535 154.182 14.5801 154.182 15.3552V15.9849C154.182 16.7599 153.891 17.4381 153.358 17.9709C152.825 18.4553 152.099 18.7459 151.372 18.7459ZM137.857 21.6523H151.324C152.874 21.6523 154.327 21.0226 155.344 20.0054C156.361 18.9881 156.991 17.5349 156.991 15.9849V15.3552C156.991 13.8051 156.361 12.3519 155.344 11.3347C154.327 10.3175 152.874 9.68774 151.324 9.68774H137.857C137.034 9.68774 136.404 10.3175 136.404 11.1409V20.1991C136.404 21.0226 137.082 21.6523 137.857 21.6523Z" fill="white"/>
<path d="M139.506 0.822998H136.6V9.00929H139.506V0.822998Z" fill="white"/>
<path d="M161.449 6.297V17.3896C161.449 18.5522 161.934 19.6179 162.66 20.3445C163.435 21.1195 164.452 21.5554 165.615 21.5554H171.186C172.348 21.5554 173.414 21.071 174.14 20.3445C174.915 19.5694 175.351 18.5522 175.351 17.3896V6.297H173.22V17.3896C173.22 17.9709 172.978 18.4553 172.639 18.8428C172.251 19.2303 171.767 19.4241 171.186 19.4241H165.615C165.034 19.4241 164.549 19.1819 164.162 18.8428C163.774 18.4553 163.581 17.9709 163.581 17.3896V6.297H161.449Z" fill="white"/>
<path d="M237.403 17.2445V10.4145C237.403 10.2692 237.354 10.1239 237.306 9.97854C237.257 9.88166 237.16 9.73634 237.112 9.63946L237.063 9.59102C236.967 9.49414 236.821 9.39726 236.724 9.34882C236.579 9.30038 236.434 9.25195 236.288 9.25195H230.718C230.573 9.25195 230.427 9.30038 230.282 9.34882C230.137 9.39726 230.04 9.49414 229.943 9.59102C229.846 9.6879 229.749 9.83322 229.701 9.97854C229.652 10.1239 229.604 10.2692 229.604 10.4145V17.3413C229.604 17.4867 229.652 17.632 229.701 17.7773C229.749 17.9226 229.846 18.0195 229.894 18.1164L229.943 18.1648C230.04 18.2617 230.185 18.3586 230.282 18.407C230.427 18.4555 230.573 18.5039 230.718 18.5039H236.288C236.434 18.5039 236.579 18.4555 236.724 18.407C236.87 18.3586 236.967 18.2617 237.063 18.1648C237.16 18.0679 237.257 17.9226 237.306 17.7773C237.354 17.632 237.403 17.4867 237.403 17.3413V17.2445ZM225.583 17.2445V10.4145C225.583 9.73634 225.729 9.05819 225.971 8.42847C226.213 7.79876 226.601 7.21748 227.085 6.73309C227.569 6.24869 228.102 5.86118 228.78 5.61899C229.41 5.37679 230.04 5.23146 230.766 5.23146H236.337C237.015 5.23146 237.693 5.37679 238.323 5.61899C238.953 5.86118 239.534 6.24869 240.018 6.73309C240.503 7.21748 240.89 7.75032 241.132 8.42847C241.375 9.05819 241.52 9.6879 241.52 10.4145V17.3413C241.52 18.0195 241.375 18.6976 241.132 19.3274C240.89 19.9571 240.503 20.5384 240.018 21.0227C239.534 21.5071 239.001 21.8947 238.323 22.1368C237.693 22.379 237.063 22.5244 236.337 22.5244H230.718C230.04 22.5244 229.362 22.379 228.732 22.1368C228.151 21.8947 227.569 21.5071 227.133 21.0712L227.085 21.0227C226.601 20.5384 226.213 20.0055 225.971 19.3274C225.729 18.6976 225.583 18.0679 225.583 17.3413V17.2445ZM244.232 17.4867V6.39401C244.232 5.86117 244.668 5.42522 245.201 5.42522H247.333C247.865 5.42522 248.301 5.86117 248.301 6.39401V17.4867C248.301 17.632 248.35 17.7773 248.398 17.9226C248.447 18.0195 248.544 18.1648 248.592 18.2617L248.64 18.3101C248.737 18.407 248.883 18.5039 248.98 18.5523C249.125 18.6008 249.27 18.6492 249.416 18.6492H254.986C255.131 18.6492 255.277 18.6008 255.422 18.5523C255.519 18.5039 255.664 18.407 255.761 18.3586L255.81 18.3101C255.906 18.2133 256.003 18.0679 256.052 17.9711C256.1 17.8257 256.149 17.6804 256.149 17.5351V6.44245C256.149 5.90962 256.585 5.47366 257.117 5.47366H259.249C259.782 5.47366 260.218 5.90962 260.218 6.44245V17.5351C260.218 18.2132 260.072 18.8914 259.83 19.5211C259.588 20.1024 259.2 20.6837 258.764 21.1196L258.716 21.1681C258.231 21.6525 257.699 22.04 257.021 22.2822C256.391 22.5244 255.761 22.6697 255.035 22.6697H249.464C248.786 22.6697 248.108 22.5244 247.478 22.2822C246.848 22.04 246.267 21.6525 245.783 21.1681C245.298 20.6837 244.911 20.1508 244.668 19.5211C244.378 18.843 244.232 18.2133 244.232 17.4867ZM274.943 9.30038H266.999V13.4662H274.943C275.088 13.4662 275.234 13.4177 275.379 13.3693C275.524 13.3209 275.621 13.224 275.718 13.1271C275.815 13.0302 275.912 12.8849 275.96 12.788C276.009 12.6427 276.057 12.4974 276.057 12.3521V10.4145C276.057 10.2692 276.009 10.1239 275.96 9.97854C275.912 9.83322 275.815 9.73634 275.718 9.59102C275.621 9.49414 275.476 9.39726 275.379 9.34882C275.234 9.30038 275.088 9.30038 274.943 9.30038ZM276.348 17.2929L278.77 21.0227C279.061 21.4587 278.915 22.04 278.479 22.3306C278.285 22.4275 278.092 22.4759 277.898 22.4759H275.379C275.04 22.4759 274.749 22.2822 274.604 22.04L271.698 17.5351H266.999V21.5556C266.999 22.0884 266.563 22.5244 266.03 22.5244H263.899C263.366 22.5244 262.93 22.0884 262.93 21.5556V15.4522V7.26593C262.93 6.73309 263.172 6.20026 263.511 5.86118C263.899 5.47367 264.383 5.2799 264.916 5.2799H274.895C275.573 5.2799 276.251 5.42522 276.881 5.66741C277.51 5.90961 278.092 6.29714 278.576 6.78153C279.06 7.26593 279.448 7.79876 279.69 8.47692C279.932 9.10663 280.078 9.73635 280.078 10.4629V12.4005C280.078 13.0787 279.932 13.7568 279.69 14.3865C279.448 15.0162 279.06 15.5975 278.576 16.0819L278.528 16.1304C278.043 16.5663 277.51 16.9538 276.929 17.196C276.735 17.1476 276.542 17.2445 276.348 17.2929ZM292.866 22.4759H283.42C282.887 22.4759 282.451 22.04 282.451 21.5071V19.3274C282.451 18.7945 282.887 18.3586 283.42 18.3586H292.866C293.011 18.3586 293.156 18.3101 293.302 18.2617C293.447 18.2132 293.544 18.1164 293.641 18.0195C293.738 17.9226 293.835 17.7773 293.883 17.632C293.931 17.4867 293.98 17.3413 293.98 17.196V17.0507C293.98 16.9054 293.931 16.7601 293.883 16.6147C293.835 16.4694 293.738 16.3726 293.641 16.2272C293.544 16.1304 293.399 16.0335 293.302 15.985C293.156 15.9366 293.011 15.8882 292.866 15.8882H288.506H288.458H287.198C286.52 15.8882 285.842 15.7428 285.212 15.5006C284.583 15.2584 284.001 14.8225 283.565 14.3381C283.081 13.8537 282.693 13.2724 282.451 12.6427C282.209 12.013 282.064 11.3348 282.064 10.6567V10.5114C282.064 9.78477 282.209 9.10663 282.451 8.52536C282.693 7.89564 283.081 7.31437 283.565 6.82997C284.05 6.34558 284.583 5.95805 285.212 5.66741C285.842 5.42522 286.472 5.2799 287.198 5.2799H295.53C296.063 5.2799 296.499 5.71586 296.499 6.24869V8.42847C296.499 8.96131 296.063 9.39726 295.53 9.39726H287.198C287.053 9.39726 286.908 9.44571 286.762 9.49415C286.617 9.54259 286.52 9.63947 286.423 9.73635C286.326 9.83322 286.23 9.97854 286.181 10.1239C286.133 10.2692 286.084 10.4145 286.084 10.5598V10.7051C286.084 10.8505 286.133 10.9958 286.181 11.1411C286.23 11.2864 286.326 11.3833 286.375 11.4802L286.423 11.5286C286.52 11.6255 286.666 11.7224 286.762 11.7708C286.908 11.8192 287.053 11.8677 287.198 11.8677H289.184H289.233H292.866C293.544 11.8677 294.222 12.013 294.852 12.2552C295.481 12.4974 296.063 12.9333 296.499 13.4177C296.983 13.9021 297.371 14.4834 297.613 15.1131C297.855 15.7428 298 16.421 298 17.0991V17.2445C298 17.9711 297.855 18.6492 297.613 19.2305C297.371 19.8602 296.983 20.4415 296.499 20.9259C296.014 21.4103 295.481 21.7978 294.852 22.0884C294.222 22.3306 293.592 22.4759 292.866 22.4759ZM217.155 4.55331V21.5071C217.155 21.9915 216.767 22.3306 216.331 22.3306H213.425C212.941 22.3306 212.601 21.9431 212.601 21.5071V4.55331H205.772C205.384 4.55331 205.045 4.16579 205.045 3.72983V0.823463C205.045 0.339068 205.384 0 205.772 0H213.425H216.331H223.985C224.372 0 224.711 0.387507 224.711 0.823463V3.72983C224.711 4.21423 224.372 4.55331 223.985 4.55331H217.155Z" fill="white"/>
<path d="M192.208 6.24805H183.877C182.714 6.24805 181.649 6.73244 180.922 7.50748C180.147 8.28251 179.711 9.34817 179.711 10.5592V10.7045C179.711 11.867 180.195 12.9811 180.922 13.7562C181.697 14.5312 182.714 15.0156 183.877 15.0156H185.863V12.8358H183.877C183.295 12.8358 182.811 12.5936 182.424 12.2061C182.036 11.8186 181.842 11.2858 181.842 10.7045V10.5592C181.842 9.97789 182.084 9.44505 182.424 9.05753C182.811 8.67002 183.295 8.42782 183.877 8.42782H192.208V6.24805Z" fill="white"/>
<path d="M189.545 22.4759H180.099C179.566 22.4759 179.13 22.04 179.13 21.5071V19.3274C179.13 18.7945 179.566 18.3586 180.099 18.3586H189.545C189.69 18.3586 189.835 18.3101 189.981 18.2617C190.126 18.2132 190.223 18.1164 190.32 18.0195C190.417 17.9226 190.514 17.7773 190.562 17.632C190.61 17.4867 190.659 17.3413 190.659 17.196V17.0507C190.659 16.9054 190.61 16.7601 190.562 16.6147C190.514 16.4694 190.417 16.3726 190.32 16.2272C190.223 16.1304 190.078 16.0335 189.981 15.985C189.835 15.9366 189.69 15.8882 189.545 15.8882H185.185H185.137H183.877C183.199 15.8882 182.521 15.7428 181.891 15.5006C181.262 15.2584 180.68 14.8225 180.244 14.3381C179.76 13.8537 179.373 13.2724 179.13 12.6427C178.888 12.013 178.743 11.3348 178.743 10.6567V10.5114C178.743 9.78477 178.888 9.10663 179.13 8.52536C179.373 7.89564 179.76 7.31437 180.244 6.82997C180.729 6.34558 181.262 5.95805 181.891 5.66741C182.521 5.42522 183.151 5.2799 183.877 5.2799H192.209C192.742 5.2799 193.178 5.71586 193.178 6.24869V8.42847C193.178 8.96131 192.742 9.39726 192.209 9.39726H183.877C183.732 9.39726 183.587 9.44571 183.441 9.49415C183.296 9.54259 183.199 9.63947 183.102 9.73635C183.005 9.83322 182.909 9.97854 182.86 10.1239C182.812 10.2692 182.763 10.4145 182.763 10.5598V10.7051C182.763 10.8505 182.812 10.9958 182.86 11.1411C182.909 11.2864 183.005 11.3833 183.054 11.4802L183.102 11.5286C183.199 11.6255 183.345 11.7224 183.441 11.7708C183.587 11.8192 183.732 11.8677 183.877 11.8677H185.863H185.912H189.545C190.223 11.8677 190.901 12.013 191.531 12.2552C192.161 12.4974 192.742 12.9333 193.178 13.4177C193.662 13.9021 194.05 14.4834 194.292 15.1131C194.534 15.7428 194.679 16.421 194.679 17.0991V17.2445C194.679 17.9711 194.534 18.6492 194.292 19.2305C194.05 19.8602 193.662 20.4415 193.178 20.9259C192.693 21.4103 192.161 21.7978 191.531 22.0884C190.901 22.3306 190.223 22.4759 189.545 22.4759ZM140.282 18.1164H151.326C151.617 18.1164 151.907 18.0679 152.15 17.9711C152.392 17.8742 152.634 17.6804 152.828 17.4867C153.021 17.2929 153.167 17.0507 153.312 16.8085C153.409 16.5663 153.457 16.2757 153.457 15.985V15.3553C153.457 15.0647 153.409 14.7741 153.312 14.5319C153.215 14.2897 153.021 14.0475 152.828 13.8537C152.634 13.6599 152.392 13.5146 152.15 13.3693C151.907 13.2724 151.617 13.224 151.326 13.224H140.282C140.282 13.2724 140.282 13.3209 140.282 13.3693V18.1164ZM135.777 0.823463C135.777 0.387507 136.116 0 136.6 0H137.569C137.666 0 137.763 0 137.86 0H150.89C151.762 0 152.537 0.193758 153.312 0.484395C154.087 0.823472 154.765 1.25942 155.347 1.8407C155.928 2.42197 156.412 3.10013 156.703 3.87516C156.993 4.60175 157.187 5.42523 157.187 6.29714V6.53933C157.187 7.41125 156.993 8.18628 156.703 8.96131C156.412 9.59102 156.073 10.2207 155.589 10.7051C155.637 10.7536 155.686 10.802 155.782 10.8504C156.364 11.4317 156.848 12.1099 157.139 12.8849C157.429 13.6115 157.623 14.435 157.623 15.3069V15.9366C157.623 16.8085 157.429 17.5835 157.139 18.3586C156.8 19.1336 156.364 19.8118 155.782 20.393C155.201 20.9743 154.523 21.4587 153.748 21.7493C153.021 22.04 152.198 22.2337 151.326 22.2337H139.701C139.652 22.2337 139.555 22.2822 139.458 22.2822H136.552C136.116 22.2822 135.729 21.9431 135.729 21.4587C135.777 14.6287 135.777 7.75031 135.777 0.823463ZM140.282 4.21423V8.71911H150.89C151.181 8.71911 151.471 8.67066 151.714 8.57378C151.956 8.47691 152.198 8.28315 152.392 8.08939L152.44 8.04096C152.634 7.8472 152.779 7.60499 152.876 7.3628C152.973 7.1206 153.021 6.82997 153.021 6.53933V6.29714C153.021 6.0065 152.973 5.71586 152.876 5.47366C152.779 5.23146 152.585 4.98927 152.392 4.79551C152.198 4.60175 151.956 4.45643 151.714 4.31111C151.471 4.21423 151.181 4.1658 150.89 4.1658H140.282V4.21423ZM160.53 17.4382V6.34558C160.53 5.81274 160.966 5.37679 161.498 5.37679H163.63C164.163 5.37679 164.598 5.81274 164.598 6.34558V17.4382C164.598 17.5835 164.647 17.7289 164.695 17.8742C164.744 18.0195 164.841 18.1164 164.938 18.2133C165.034 18.3101 165.18 18.407 165.277 18.4555C165.422 18.5039 165.567 18.5523 165.713 18.5523H171.283C171.574 18.5523 171.864 18.407 172.058 18.2133C172.155 18.1164 172.252 17.9711 172.3 17.8742C172.349 17.7289 172.397 17.5835 172.397 17.4382V6.34558C172.397 5.81274 172.833 5.37679 173.366 5.37679H175.497C176.03 5.37679 176.466 5.81274 176.466 6.34558V17.4382C176.466 18.1164 176.321 18.7945 176.079 19.4242C175.836 20.054 175.449 20.6352 174.965 21.1196C174.48 21.604 173.947 21.9915 173.269 22.2337C172.639 22.4759 172.01 22.6212 171.283 22.6212H165.713C165.034 22.6212 164.356 22.4759 163.727 22.2337C163.145 21.9915 162.564 21.604 162.128 21.1681L162.08 21.1196C161.595 20.6352 161.208 20.1024 160.966 19.4242C160.626 18.7945 160.53 18.1164 160.53 17.4382Z" fill="white"/>
<path d="M180.1 21.5075H189.545C190.708 21.5075 191.774 21.0231 192.5 20.2481C193.275 19.4731 193.711 18.4074 193.711 17.1964V17.0511C193.711 15.8886 193.227 14.7745 192.5 13.9994C191.725 13.2244 190.708 12.74 189.545 12.74H185.186V14.9198H189.545C190.127 14.9198 190.611 15.162 190.998 15.5495C191.386 15.937 191.58 16.4698 191.58 17.0511V17.1964C191.58 17.7777 191.338 18.3105 190.998 18.6981C190.611 19.0856 190.127 19.3278 189.545 19.3278H180.1V21.5075Z" fill="white"/>
</svg>
